<svg fill="#2196F3" xmlns="http://www.w3.org/2000/svg" xmlns:xlink="http://www.w3.org/1999/xlink" version="1.1" x="0px" y="0px" viewBox="0 0 100 100" style="enable-background:new 0 0 100 100;" xml:space="preserve"><g><path d="M85.1,17.1H34.7c-3.3,0-6,2.7-6,6s2.7,6,6,6h50.4c3.3,0,6-2.7,6-6S88.4,17.1,85.1,17.1z"></path><circle cx="15" cy="23.1" r="6"></circle><path d="M85.1,44.1H34.7c-3.3,0-6,2.7-6,6s2.7,6,6,6h50.4c3.3,0,6-2.7,6-6S88.4,44.1,85.1,44.1z"></path><circle cx="15" cy="50.1" r="6"></circle><path d="M85.1,71.1H34.7c-3.3,0-6,2.7-6,6s2.7,6,6,6h50.4c3.3,0,6-2.7,6-6S88.4,71.1,85.1,71.1z"></path><circle cx="15" cy="77.1" r="6"></circle></g></svg>