<svg fill="#BDBDBD" xmlns="http://www.w3.org/2000/svg" xmlns:xlink="http://www.w3.org/1999/xlink" version="1.1" x="0px" y="0px" viewBox="0 0 100 100" enable-background="new 0 0 100 100" xml:space="preserve"><path d="M61.117,47.982c2.137-3.006,3.383-6.84,3.383-10.482c0-7.168-5.832-13-13-13c-7.168,0-13,5.832-13,13  c0,3.643,1.246,7.477,3.383,10.482C34.627,50.274,29.5,54.889,29.5,59.5v7c0,2.206,1.794,4,4,4h36c2.205,0,4-1.794,4-4v-7  C73.5,54.889,68.373,50.274,61.117,47.982z M51.5,28.5c4.963,0,9,4.037,9,9c0,6.168-4.375,12-9,12c-4.626,0-9-5.832-9-12  C42.5,32.537,46.538,28.5,51.5,28.5z M69.5,66.5h-36v-7c0-2.711,4.682-6.613,11.529-8.236c1.862,1.391,4.049,2.236,6.471,2.236  c2.422,0,4.607-0.846,6.471-2.236C64.819,52.887,69.5,56.789,69.5,59.5V66.5z"></path></svg>