<svg fill="#BDBDBD" xmlns="http://www.w3.org/2000/svg" xmlns:xlink="http://www.w3.org/1999/xlink" version="1.1" x="0px" y="0px" viewBox="0 0 100 100" style="enable-background:new 0 0 100 100;" xml:space="preserve"><g><path d="M50.6,55c9.3,0,19.6-10.5,19.6-25.7c0-12.2-8.2-21-19.6-21c-11.4,0-19.6,8.9-19.6,21C31,44.5,41.3,55,50.6,55z M50.6,14.1   c8.3,0,13.8,6.1,13.8,15.2c0,10.2-6.7,19.9-13.8,19.9c-7.1,0-13.8-9.7-13.8-19.9C36.8,20.2,42.3,14.1,50.6,14.1z"></path><path d="M17.5,91.7h65c1.6,0,2.9-1.3,2.9-2.9v-6.6c0-5.6-3-10.9-7.7-13.8l-14.1-8.6C61,58.2,58,57.4,55,57.4H44.6   c-3,0-6,0.8-8.6,2.5l-13.7,8.5c-4.8,3-7.6,8.1-7.6,13.7v6.7C14.6,90.4,15.9,91.7,17.5,91.7z M20.4,82.1c0-3.6,1.8-6.9,4.9-8.8   L39,64.8c1.7-1,3.6-1.6,5.5-1.6H55c1.9,0,3.8,0.5,5.5,1.5l14.1,8.6c3.1,1.9,5,5.2,5,8.8v3.7H20.4V82.1z"></path></g></svg>